# xmcd
#
# Track frame offsets:
# 150
# 17311
# 32243
# 47167
# 63326
# 78245
# 94987
# 122957
# 147415
# 166655
# 183195
# 199800
# 202021
# 226166
# 243951
# 260449
# 279635
# 291726
# 308358
#
# Disc length: 4312 seconds
#
#
# Revision: 0
# Processed by: cddbd v1.5.2PL0 Copyright (c) Steve Scherf et al.
# Submitted via: FreeRIP 2.96 
#
DISCID=0c10d613
DTITLE=Fred e Paulinho - Festa de fim de ano - Festa de fim de ano
DYEAR=2007
DGENRE=sertanejo
TTITLE0=Dias perfeitos
TTITLE1=Pega fogo Cabaré
TTITLE2=Poeira, suor e cerveja
TTITLE3=Magia e misterio
TTITLE4=Como um anjo
TTITLE5=Dias perfeitos
TTITLE6=Boate azul, telefone mudo, ainda ontem chorei de saudade
TTITLE7=Evidencias
TTITLE8=Deixa eu te amar
TTITLE9=Rumo à Goiania
TTITLE10=Saudade da minha terra
TTITLE11=versos
TTITLE12=Pagode em Brasilia, O campeão, Menina bonita, Vida Amargurada
TTITLE13=Coração
TTITLE14=Vida vazia
TTITLE15=Tentei te esquecer
TTITLE16=Vida cigana
TTITLE17=Sem medo de ficar feliz
TTITLE18=Vem ficar comigo
EXTD=02/2007
EXTT0=
EXTT1=
EXTT2=
EXTT3=
EXTT4=
EXTT5=
EXTT6=
EXTT7=
EXTT8=
EXTT9=
EXTT10=
EXTT11=
EXTT12=
EXTT13=
EXTT14=
EXTT15=
EXTT16=
EXTT17=
EXTT18=
PLAYORDER=
